<?xml version="1.0" encoding="UTF-8" standalone="no"?>
<svg version="1.0" xmlns="http://www.w3.org/2000/svg" width="640.000000pt" height="640.000000pt" viewBox="0 0 640.000000 640.000000" preserveAspectRatio="xMidYMid meet">

<g transform="translate(0.000000,640.000000) scale(0.100000,-0.100000)" fill="#eeeeee" stroke="none">
<path d="M0 3200 l0 -3200 3200 0 3200 0 0 3200 0 3200 -3200 0 -3200 0 0 -3200z m3485 2831 c171 -15 205 -21 205 -37 0 -16 16 -19 25 -4 3 6 17 10 30 10 13 0 27 -4 30 -10 3 -5 23 -10 44 -10 27 0 46 -7 65 -25 29 -27 71 -33 80 -12 5 10 7 10 12 0 3 -7 18 -13 32 -13 45 0 70 -11 76 -33 4 -17 7 -18 20 -8 21 17 46 7 46 -19 0 -11 7 -20 15 -20 8 0 15 6 15 14 0 20 33 9 65 -20 18 -17 33 -22 49 -18 18 4 25 1 28 -14 4 -13 14 -19 33 -19 15 0 31 -6 35 -13 4 -7 15 -10 24 -7 10 4 20 -1 26 -14 8 -14 17 -18 31 -14 13 4 19 2 19 -9 0 -10 9 -16 25 -16 14 0 25 -4 25 -10 0 -5 9 -10 20 -10 11 0 29 -13 42 -30 12 -16 30 -30 39 -30 10 0 21 -4 24 -10 3 -5 15 -10 26 -10 22 0 49 -22 49 -39 0 -6 9 -11 20 -11 19 0 57 -26 89 -62 8 -10 25 -18 36 -18 11 0 33 -16 50 -35 16 -19 36 -35 43 -35 16 0 75 -57 91 -87 6 -13 19 -23 27 -23 16 0 49 -26 82 -64 23 -25 112 -113 156 -154 20 -18 36 -37 36 -43 0 -5 20 -29 43 -52 24 -23 52 -59 61 -79 10 -21 24 -38 31 -38 8 0 19 -16 26 -35 7 -19 17 -35 21 -35 4 0 8 -6 8 -12 0 -7 14 -26 30 -42 17 -16 30 -36 30 -43 0 -8 9 -24 20 -36 24 -25 50 -74 50 -94 0 -7 4 -13 9 -13 14 0 111 -195 111 -223 0 -14 7 -27 15 -31 8 -3 15 -12 15 -20 0 -8 6 -27 14 -43 28 -55 46 -101 46 -120 0 -10 4 -23 9 -28 8 -10 39 -106 61 -195 6 -25 16 -61 21 -80 43 -165 69 -411 69 -650 -1 -573 -165 -1104 -491 -1590 -419 -623 -1089 -1065 -1828 -1204 -322 -61 -722 -63 -1046 -5 -176 31 -466 118 -601 180 -92 42 -278 133 -284 139 -3 3 -18 12 -35 20 -16 8 -32 18 -35 21 -3 3 -18 13 -35 22 -16 8 -43 29 -60 46 -16 17 -36 31 -43 31 -20 0 -82 44 -82 58 0 6 -8 12 -18 12 -10 0 -42 23 -71 50 -29 28 -56 50 -61 50 -9 0 -68 58 -111 108 -14 16 -34 31 -45 34 -10 2 -20 13 -22 24 -2 12 -14 27 -28 34 -13 7 -24 16 -24 19 0 11 -59 71 -69 71 -6 0 -11 7 -11 15 0 8 -25 39 -55 69 -30 29 -55 60 -55 68 0 8 -16 29 -35 48 -19 19 -35 43 -35 53 0 9 -5 17 -10 17 -6 0 -14 8 -17 18 -4 9 -17 27 -30 39 -13 12 -23 29 -23 38 0 8 -4 15 -10 15 -5 0 -10 10 -10 21 0 12 -11 32 -25 45 -14 13 -25 30 -25 39 0 9 -7 18 -15 21 -8 4 -15 17 -15 30 0 13 -4 24 -10 24 -5 0 -10 11 -10 25 0 14 -4 25 -10 25 -5 0 -10 9 -10 20 0 11 -7 23 -15 26 -8 4 -15 16 -15 29 0 13 -6 25 -14 28 -10 4 -13 15 -10 32 3 17 -1 27 -11 31 -8 4 -15 18 -15 34 0 16 -7 30 -15 34 -11 4 -15 20 -15 56 0 38 -4 50 -15 50 -10 0 -15 10 -15 30 0 18 -6 33 -15 36 -10 4 -15 20 -15 45 0 21 -4 39 -10 39 -5 0 -10 16 -10 35 0 19 -4 35 -10 35 -5 0 -10 24 -10 54 0 35 -5 60 -15 70 -10 10 -15 35 -15 75 0 48 -3 61 -15 61 -12 0 -15 19 -15 114 0 83 -3 115 -12 118 -10 4 -14 57 -16 209 -4 178 -2 207 12 218 13 11 16 34 16 118 0 83 3 105 15 109 11 5 15 23 15 71 0 45 5 69 16 80 9 10 14 29 12 51 -2 22 2 37 10 40 7 2 12 21 12 47 0 24 5 47 10 50 6 3 10 21 10 39 0 19 7 39 15 46 8 7 15 23 15 37 0 13 7 26 15 29 10 4 15 20 15 49 0 29 5 45 15 49 8 3 15 16 15 29 0 14 7 30 16 38 8 7 13 21 11 30 -3 10 1 26 9 36 7 10 14 28 14 41 0 13 6 22 15 22 8 0 15 9 15 19 0 11 5 23 10 26 6 3 10 17 10 31 0 13 5 24 10 24 6 0 10 9 10 20 0 11 7 20 15 20 8 0 15 6 15 14 0 8 7 16 15 20 8 3 15 15 15 26 0 11 5 20 10 20 6 0 10 9 10 19 0 10 11 29 25 42 13 13 25 32 25 41 0 9 11 25 25 36 14 11 25 27 25 36 0 9 7 16 15 16 9 0 15 9 15 23 0 12 9 28 20 35 11 7 20 21 20 33 0 12 18 36 42 57 23 20 50 45 60 55 10 9 22 17 28 17 6 0 10 8 10 18 0 18 202 232 219 232 5 0 11 7 15 15 3 8 15 15 26 15 11 0 20 5 20 10 0 6 8 18 18 28 9 10 34 37 54 60 20 23 45 42 55 42 26 0 43 19 43 47 0 26 15 31 24 8 3 -8 10 -15 16 -15 5 0 10 7 10 15 0 8 8 15 18 15 17 0 32 21 46 63 4 12 16 17 41 17 28 0 35 4 35 20 0 11 5 20 10 20 6 0 10 -4 10 -10 0 -5 7 -10 15 -10 9 0 15 9 15 25 0 22 4 25 39 25 25 0 41 5 45 15 3 8 12 15 21 15 8 0 15 4 15 9 0 5 12 11 28 13 19 2 28 9 30 26 4 24 22 31 22 7 0 -8 5 -15 10 -15 6 0 10 7 10 15 0 9 9 15 24 15 15 0 33 11 46 27 21 27 22 27 36 9 14 -20 13 -22 29 29 2 8 11 15 20 15 8 0 15 -7 15 -15 0 -24 18 -17 37 15 12 21 25 30 44 30 15 0 32 7 39 15 7 8 25 15 41 15 15 0 31 5 34 10 3 6 28 10 56 10 27 0 49 5 49 10 0 6 20 10 45 10 31 0 47 5 51 15 4 10 20 15 49 15 26 0 47 6 55 15 9 11 33 15 84 15 40 0 76 4 81 9 6 5 61 11 123 14 63 3 116 8 120 12 8 8 247 -1 407 -14z"/>
<path d="M2909 5921 c-42 -5 -98 -13 -125 -19 -27 -6 -85 -18 -129 -27 -113 -24 -264 -64 -303 -81 -18 -8 -39 -14 -47 -14 -8 0 -15 -4 -15 -9 0 -5 -9 -7 -20 -4 -12 3 -28 -1 -38 -9 -9 -8 -55 -29 -102 -48 -47 -18 -105 -45 -130 -59 -25 -15 -70 -39 -100 -54 -30 -14 -73 -38 -95 -52 -37 -24 -38 -26 -11 -20 16 3 45 17 65 31 23 15 50 24 76 24 36 1 38 2 22 14 -17 13 -16 15 12 21 16 3 41 15 54 25 12 10 47 26 77 35 30 9 62 21 70 26 50 31 124 51 167 44 31 -4 34 -4 15 5 -33 14 -17 33 20 25 19 -5 28 -3 25 2 -15 25 414 123 440 101 8 -6 36 -6 85 2 40 6 109 10 153 10 154 -2 233 2 200 10 -22 6 -8 8 48 8 42 -1 77 -5 77 -10 0 -6 23 -7 55 -3 59 8 168 -2 161 -14 -3 -4 5 -8 17 -9 12 -1 30 -3 39 -5 9 -1 17 2 18 8 1 5 -36 18 -82 28 -65 14 -143 19 -353 22 -148 2 -304 0 -346 -4z m-34 -31 c-27 -12 -35 -12 -35 0 0 6 12 10 28 9 24 0 25 -1 7 -9z"/>
<path d="M3735 5868 c11 -7 72 -24 135 -39 219 -51 350 -100 350 -129 0 -6 11 -10 25 -10 13 0 28 -8 34 -17 6 -12 22 -18 48 -19 23 0 54 -11 80 -27 24 -15 49 -27 56 -27 7 0 31 -13 53 -29 21 -15 52 -31 69 -35 16 -4 49 -23 72 -42 23 -19 44 -34 48 -34 16 0 85 -63 79 -72 -4 -6 1 -8 12 -4 13 4 36 -9 77 -44 32 -28 62 -50 65 -50 4 0 43 -34 86 -75 43 -41 83 -75 89 -75 18 0 -42 57 -178 169 -173 144 -243 191 -426 291 -126 69 -309 150 -339 150 -6 0 -8 6 -4 13 4 6 4 9 -1 5 -4 -4 -30 2 -59 12 -94 35 -244 74 -356 94 -30 5 -32 4 -15 -6z"/>
<path d="M2850 5819 c-52 -11 -133 -21 -180 -22 -57 -1 -73 -3 -50 -7 42 -8 28 -16 -50 -29 -30 -5 -89 -19 -130 -31 -41 -13 -86 -24 -100 -25 -14 -1 -33 -3 -42 -3 -10 -1 -18 -9 -18 -18 0 -12 -6 -15 -24 -10 -23 6 -53 -14 -40 -27 3 -3 -28 -11 -70 -18 -72 -11 -91 -21 -63 -32 6 -3 0 -6 -15 -6 -16 -1 -28 -4 -28 -9 0 -4 -27 -18 -60 -31 -33 -13 -57 -28 -53 -34 4 -6 1 -7 -6 -3 -16 10 -73 -13 -64 -26 3 -6 0 -8 -8 -6 -8 3 -13 11 -11 17 1 7 -3 9 -9 6 -8 -5 -8 -10 0 -18 6 -6 11 -19 11 -29 0 -18 16 -25 22 -10 3 9 203 122 214 122 3 0 31 12 62 26 31 15 89 37 127 51 39 13 84 30 100 37 98 43 258 81 540 126 33 6 166 10 295 10 205 0 254 -3 380 -24 202 -35 325 -62 395 -87 33 -12 83 -30 110 -39 144 -52 274 -110 395 -177 132 -74 159 -91 310 -202 80 -59 251 -211 337 -301 29 -30 53 -48 53 -41 0 15 -32 71 -40 71 -4 0 -29 21 -57 48 -28 26 -58 53 -68 61 -11 8 -13 16 -7 20 8 4 8 11 1 21 -8 11 -12 12 -16 3 -8 -21 -31 -15 -54 16 -11 15 -55 55 -96 87 -41 32 -79 66 -84 76 -5 9 -22 19 -39 23 -16 3 -40 17 -52 31 -13 13 -27 24 -31 24 -5 0 -21 8 -35 19 -15 10 -55 33 -90 51 -34 18 -65 36 -68 41 -3 5 -12 9 -21 9 -9 0 -24 6 -32 13 -9 8 -65 33 -126 56 -60 24 -128 52 -150 61 -23 10 -81 29 -130 41 -50 12 -93 26 -97 32 -3 5 -21 11 -40 12 -18 1 -53 7 -78 13 -221 52 -236 54 -535 57 -261 4 -300 2 -385 -16z"/>
<path d="M2827 5669 c-20 -5 -55 -18 -77 -29 -22 -11 -61 -23 -87 -27 -62 -8 -73 -17 -73 -62 0 -50 -27 -74 -143 -131 -75 -37 -93 -49 -95 -70 -3 -20 -1 -23 9 -12 7 6 17 12 22 12 10 0 -25 -51 -70 -103 -29 -32 -34 -45 -33 -85 0 -26 -2 -63 -5 -82 -3 -19 -1 -42 4 -50 9 -13 12 -12 25 5 9 11 16 18 16 15 7 -32 6 -42 -10 -53 -10 -7 -19 -21 -21 -31 -3 -12 -19 -23 -47 -31 -58 -17 -128 -51 -179 -87 -46 -31 -56 -65 -30 -103 8 -11 19 -47 26 -80 24 -112 88 -195 150 -195 17 0 22 -5 19 -22 -2 -16 -9 -22 -23 -20 -126 16 -118 18 -158 -27 -70 -78 -46 -126 83 -169 l85 -29 7 -54 c4 -30 14 -112 23 -183 25 -210 41 -264 87 -308 21 -21 45 -38 51 -38 19 0 78 -46 70 -53 -3 -4 -15 -7 -25 -7 -24 0 -315 -76 -453 -118 -59 -18 -403 -162 -527 -220 -47 -23 -99 -55 -115 -70 -15 -16 -70 -66 -120 -111 -51 -45 -93 -89 -93 -96 0 -28 169 -106 438 -201 156 -56 229 -64 577 -67 l269 -2 7 35 c4 19 12 132 19 250 11 203 13 220 46 314 19 55 36 101 38 104 3 2 24 -33 47 -79 l41 -83 -11 -131 c-14 -164 -14 -280 0 -345 18 -83 22 -84 304 -89 132 -1 324 3 427 9 l188 13 55 176 c31 97 76 237 99 311 50 155 65 207 104 344 15 55 32 101 37 102 6 2 27 -19 47 -45 58 -75 74 -180 39 -249 -38 -75 -130 -299 -156 -382 -15 -49 -29 -119 -32 -165 -8 -131 -47 -120 437 -118 421 3 452 5 612 47 156 41 548 182 572 207 6 5 0 19 -15 36 -37 40 -60 76 -119 188 -68 130 -84 152 -128 174 -75 38 -259 85 -454 116 -113 18 -280 48 -493 87 -160 30 -173 34 -212 67 -48 41 -50 48 -24 93 10 18 34 73 52 123 19 49 42 98 52 107 11 12 17 34 17 67 0 43 2 49 19 44 27 -7 29 18 37 362 6 292 5 304 -20 464 -18 109 -24 167 -17 174 7 7 6 17 -1 31 -6 12 -20 65 -30 120 -21 118 -48 176 -109 238 -59 59 -110 85 -188 94 -52 6 -70 13 -109 45 -26 22 -55 39 -65 39 -10 0 -38 11 -63 25 -36 20 -58 25 -118 25 -53 0 -77 4 -86 15 -7 8 -29 15 -49 15 -20 0 -45 6 -56 13 -24 16 -259 21 -318 6z m239 -263 c61 -9 101 -22 171 -59 29 -15 66 -27 82 -27 16 0 50 -9 76 -20 26 -11 61 -20 78 -21 18 0 41 -4 52 -9 15 -7 10 -9 -22 -7 -23 1 -43 -2 -43 -8 -1 -5 -7 -17 -14 -25 -7 -8 -16 -22 -20 -30 -4 -8 -13 -26 -21 -40 -17 -29 -20 -60 -5 -60 5 0 7 -7 4 -15 -4 -9 0 -15 9 -15 10 0 13 -7 10 -19 -3 -11 4 -25 20 -37 22 -18 33 -54 17 -54 -8 0 -296 151 -332 173 -13 9 -44 18 -69 22 -65 10 -189 11 -189 3 0 -4 -6 -5 -13 -2 -7 2 -25 -6 -40 -20 -15 -14 -27 -20 -27 -13 0 8 -3 8 -8 2 -4 -5 -16 -10 -27 -10 -26 1 -44 -17 -42 -40 1 -12 -17 -28 -58 -51 -33 -18 -63 -33 -67 -34 -5 0 -8 11 -8 25 0 15 -9 31 -23 40 -21 13 -30 13 -78 1 -30 -8 -67 -19 -83 -26 -16 -6 -31 -8 -34 -5 -3 3 22 33 55 68 33 34 64 73 68 86 4 13 30 45 57 71 51 48 80 60 159 60 27 0 40 7 56 28 48 66 155 89 309 68z m401 -222 c-3 -3 -12 -4 -19 -1 -8 3 -5 6 6 6 11 1 17 -2 13 -5z m-20 -50 c-3 -3 -12 -4 -19 -1 -8 3 -5 6 6 6 11 1 17 -2 13 -5z m221 -11 c-10 -2 -26 -2 -35 0 -10 3 -2 5 17 5 19 0 27 -2 18 -5z m169 -59 c-3 -3 -12 -4 -19 -1 -8 3 -5 6 6 6 11 1 17 -2 13 -5z m-347 -24 c18 -12 2 -12 -25 0 -13 6 -15 9 -5 9 8 0 22 -4 30 -9z m168 3 c-10 -2 -28 -2 -40 0 -13 2 -5 4 17 4 22 1 32 -1 23 -4z m-400 -72 c42 -21 120 -62 172 -91 52 -28 115 -60 140 -70 32 -13 38 -19 23 -19 -22 -1 -34 -21 -12 -21 6 0 8 -9 4 -20 -4 -12 -2 -20 5 -20 7 0 10 -7 6 -15 -8 -21 12 -62 55 -115 25 -31 39 -60 44 -95 l9 -50 7 65 c4 36 12 77 17 91 17 43 70 96 102 102 41 9 38 19 -12 46 -96 51 -238 132 -238 136 0 3 8 1 18 -3 84 -38 141 -68 201 -106 39 -25 91 -51 116 -57 59 -15 78 -40 105 -140 32 -118 23 -173 -50 -319 -32 -63 -69 -125 -82 -138 -17 -15 -47 -26 -88 -33 -61 -10 -64 -9 -92 18 -17 15 -34 39 -39 52 -11 27 -18 24 -24 -9 -16 -85 -101 -255 -158 -320 -16 -17 -26 -34 -23 -38 12 -11 59 44 103 120 60 104 82 121 148 112 88 -12 93 -16 88 -71 -3 -26 -9 -61 -14 -78 -4 -16 -13 -70 -19 -120 -11 -91 -24 -153 -66 -325 -47 -194 -50 -199 -129 -242 -181 -98 -329 -109 -600 -42 -55 14 -145 28 -200 31 -55 3 -106 10 -113 16 -18 14 -55 87 -48 95 3 3 -4 19 -17 36 -24 32 -67 126 -67 146 0 7 12 3 28 -8 109 -77 291 -132 438 -132 88 0 106 3 159 28 65 31 272 147 293 164 24 20 4 19 -31 -2 -20 -12 -41 -19 -46 -16 -5 4 -12 2 -16 -4 -4 -6 -11 -8 -16 -4 -5 3 -7 9 -5 13 3 3 -4 7 -15 7 -19 0 -19 -1 -3 -13 10 -7 16 -14 13 -16 -28 -24 -108 -70 -163 -96 -73 -33 -216 -56 -216 -33 0 6 -17 16 -37 22 -62 20 -152 64 -147 72 3 4 22 8 43 8 78 0 224 32 265 58 130 81 206 135 206 147 0 4 -6 3 -13 -3 -7 -6 -25 -13 -41 -16 -15 -3 -39 -12 -53 -22 -71 -46 -248 -79 -331 -62 -36 8 -41 12 -31 24 6 8 15 14 20 14 15 0 92 53 119 81 43 45 70 80 70 89 0 5 9 19 20 32 10 12 30 37 44 53 13 17 56 45 100 65 42 19 76 40 76 48 0 7 5 10 10 7 6 -3 10 1 10 10 0 9 10 25 23 36 12 10 17 18 12 19 -6 0 -26 -16 -45 -36 -20 -21 -72 -55 -127 -81 -51 -24 -93 -49 -93 -54 0 -6 -5 -7 -12 -3 -6 4 -8 3 -5 -2 7 -13 -2 -26 -33 -47 -34 -24 -47 -21 -24 5 l19 22 -30 -18 c-34 -21 -170 -122 -198 -147 -38 -34 -107 -62 -162 -64 -33 -2 -41 1 -41 15 0 10 5 16 11 14 6 -3 10 10 10 29 0 29 -3 33 -20 29 -19 -4 -19 -3 1 12 19 13 21 24 19 77 -1 34 -8 64 -13 68 -7 4 -2 14 13 25 14 10 25 23 25 28 0 5 -7 2 -16 -6 -8 -9 -20 -16 -25 -16 -6 0 -3 7 6 16 9 9 14 23 10 31 -4 11 -1 13 10 9 9 -3 14 -2 11 3 -8 12 14 28 55 44 90 33 159 80 196 135 21 30 42 60 47 67 19 25 -62 100 -163 151 l-54 27 -96 -22 c-105 -23 -151 -27 -151 -11 0 6 -8 10 -17 10 -16 0 -153 39 -162 47 -3 2 4 10 15 19 18 15 18 15 -3 9 -18 -5 -23 -2 -23 12 0 14 19 24 82 44 78 25 84 25 108 10 l25 -16 -22 29 c-23 29 -23 65 -1 93 5 7 7 17 3 23 -3 6 19 51 50 100 37 57 55 95 51 106 -8 22 11 44 39 44 16 0 26 -9 35 -32 31 -85 45 -109 88 -155 26 -28 59 -58 75 -67 33 -20 33 -24 2 -70 -17 -26 -20 -36 -10 -36 14 0 55 50 55 68 0 12 48 22 104 22 22 0 48 5 56 11 11 8 -10 9 -75 6 -68 -4 -95 -2 -110 9 -17 12 -10 14 61 14 87 0 190 28 217 58 27 31 48 115 48 192 0 55 4 79 16 92 9 10 20 18 25 18 5 0 43 -18 86 -39z m-513 -87 c0 -72 -3 -89 -15 -89 -21 0 -38 148 -20 170 26 31 35 10 35 -81z m39 50 c9 -67 8 -130 -3 -118 -11 12 -22 164 -12 164 5 0 11 -21 15 -46z m-591 -216 c3 -38 2 -68 -3 -68 -15 0 -37 151 -24 172 10 16 19 -17 27 -104z m-43 53 c0 -21 3 -59 6 -84 6 -38 4 -48 -10 -53 -9 -4 -19 -5 -21 -2 -7 6 -24 162 -19 170 3 4 14 8 25 8 15 0 19 -7 19 -39z m334 -463 c22 -31 20 -76 -4 -115 -20 -33 -42 -41 -69 -24 -12 7 -10 14 8 36 15 20 21 42 21 76 0 55 17 65 44 27z m331 -18 c38 -14 26 -33 -26 -42 -53 -9 -190 29 -154 43 29 11 150 11 180 -1z m-499 -111 l44 -11 0 -54 c0 -29 5 -65 12 -81 7 -15 13 -32 13 -38 1 -5 7 -23 14 -39 6 -16 10 -34 8 -39 -2 -6 7 -21 20 -35 13 -14 23 -39 24 -56 1 -17 2 -50 2 -73 1 -39 11 -56 19 -34 2 5 12 3 23 -6 l20 -15 -20 6 c-16 5 -20 1 -21 -19 -1 -14 3 -25 10 -25 6 0 4 -5 -4 -10 -13 -9 -13 -11 0 -19 10 -7 2 -9 -25 -7 -22 2 -41 9 -43 15 -2 6 -7 9 -11 6 -13 -8 -74 43 -86 72 -12 29 -21 79 -55 315 -25 167 -25 172 -4 164 9 -4 36 -11 60 -17z m522 -12 c30 -3 28 -11 -17 -56 -41 -41 -129 -76 -258 -102 -103 -21 -169 16 -71 40 107 26 348 110 318 111 -3 0 -35 -9 -72 -19 -80 -23 -245 -47 -254 -38 -4 4 -5 10 -1 13 12 12 282 63 307 58 14 -3 35 -6 48 -7z m-263 -227 c3 -5 1 -10 -4 -10 -6 0 -11 5 -11 10 0 6 2 10 4 10 3 0 8 -4 11 -10z m0 -160 c3 -5 1 -10 -4 -10 -6 0 -11 5 -11 10 0 6 2 10 4 10 3 0 8 -4 11 -10z m-65 -14 c0 -2 -7 -7 -16 -10 -8 -3 -12 -2 -9 4 6 10 25 14 25 6z m65 -16 c3 -5 1 -10 -4 -10 -6 0 -11 5 -11 10 0 6 2 10 4 10 3 0 8 -4 11 -10z"/>
<path d="M3880 4677 c-9 -7 -29 -34 -45 -62 -37 -64 -48 -184 -20 -215 19 -21 15 -36 -8 -27 -8 3 -17 19 -20 36 -4 17 -11 31 -16 31 -5 0 -7 -9 -4 -20 3 -13 -1 -26 -10 -33 -22 -17 -26 -67 -6 -80 18 -11 64 -3 79 16 5 6 22 27 36 45 l26 33 -36 54 c-35 54 -45 88 -27 100 5 3 18 -6 29 -20 29 -36 46 -33 38 8 -18 88 -19 107 -5 107 41 -1 58 -43 66 -164 l5 -91 -36 -54 c-36 -52 -45 -81 -27 -81 6 0 32 30 58 67 46 65 48 70 48 138 0 162 -60 264 -125 212z"/>
<path d="M3050 4640 c-21 -7 -21 -8 -5 -9 11 0 27 4 35 9 18 11 5 11 -30 0z"/>
<path d="M3465 4606 c-27 -12 -67 -42 -87 -64 -31 -34 -38 -50 -38 -82 0 -39 23 -110 35 -110 3 0 3 27 -1 61 -8 74 2 97 69 145 63 46 95 58 113 43 17 -14 19 2 2 19 -17 17 -36 15 -93 -12z"/>
<path d="M2603 4600 c-45 -18 -22 -53 29 -43 14 3 29 0 32 -6 11 -16 52 -13 67 5 31 37 -65 69 -128 44z"/>
<path d="M2460 4552 c0 -28 34 -54 67 -50 l28 3 -32 33 c-35 36 -63 42 -63 14z"/>
<path d="M2964 4441 c20 -29 36 -57 36 -62 0 -5 5 -9 10 -9 16 0 -24 72 -55 100 -25 22 -24 19 9 -29z"/>
<path d="M2532 4473 c-36 -5 -72 -30 -72 -50 0 -6 8 -17 18 -23 14 -9 13 -10 -8 -5 -23 6 -24 5 -5 -6 11 -7 23 -17 26 -22 10 -15 94 46 92 67 -1 12 4 16 15 11 13 -5 12 -2 -3 15 -10 11 -21 19 -24 18 -3 0 -21 -3 -39 -5z m38 -13 c0 -5 -5 -10 -11 -10 -5 0 -7 5 -4 10 3 6 8 10 11 10 2 0 4 -4 4 -10z"/>
<path d="M2830 4414 c0 -7 12 -20 28 -30 31 -20 87 -74 77 -74 -4 0 0 -7 9 -15 18 -18 40 -20 29 -2 -4 6 -8 18 -10 26 -1 8 -9 19 -18 24 -9 5 -20 20 -26 33 -7 20 -14 24 -30 19 -16 -5 -19 -4 -14 6 6 9 3 10 -10 5 -11 -4 -22 -2 -27 6 -5 8 -8 9 -8 2z"/>
<path d="M3670 4389 c0 -5 5 -7 10 -4 6 3 10 8 10 11 0 2 -4 4 -10 4 -5 0 -10 -5 -10 -11z"/>
<path d="M3021 4344 c0 -11 3 -14 6 -6 3 7 2 16 -1 19 -3 4 -6 -2 -5 -13z"/>
<path d="M3721 4241 c-8 -5 -14 -24 -14 -41 0 -37 18 -52 55 -46 16 3 31 -1 38 -9 28 -34 90 -4 90 43 0 25 -27 42 -69 42 -16 0 -33 5 -36 10 -8 12 -45 13 -64 1z m59 -36 c0 -32 -25 -51 -45 -35 -20 17 -19 47 2 58 24 14 43 4 43 -23z m85 -25 c0 -16 -6 -26 -18 -28 -25 -5 -46 15 -40 39 9 31 58 22 58 -11z"/>
<path d="M3323 4026 c-10 -11 -9 -15 4 -20 9 -4 18 -4 21 -1 3 3 0 5 -8 5 -10 0 -10 3 0 15 16 19 -1 19 -17 1z"/>
<path d="M3301 3911 c-10 -7 -7 -9 12 -8 14 1 23 5 20 10 -6 9 -15 9 -32 -2z"/>
<path d="M3327 3879 c7 -7 15 -10 18 -7 3 3 -2 9 -12 12 -14 6 -15 5 -6 -5z"/>
<path d="M3306 3822 c-2 -4 4 -8 14 -8 10 0 16 4 14 8 -3 4 -9 8 -14 8 -5 0 -11 -4 -14 -8z"/>
<path d="M3310 3766 c0 -2 7 -7 16 -10 8 -3 12 -2 9 4 -6 10 -25 14 -25 6z"/>
<path d="M3304 3708 c9 -5 23 -5 32 0 12 6 7 9 -16 9 -23 0 -28 -3 -16 -9z"/>
<path d="M3307 3573 c-3 -5 6 -9 20 -10 19 -1 22 1 12 8 -17 11 -26 11 -32 2z"/>
<path d="M2450 3690 c0 -5 5 -10 10 -10 6 0 10 5 10 10 0 6 -4 10 -10 10 -5 0 -10 -4 -10 -10z"/>
<path d="M1709 5487 c-50 -31 -223 -163 -239 -181 -7 -9 -16 -16 -21 -16 -12 0 -110 -90 -221 -205 -75 -77 -96 -105 -92 -121 3 -12 -1 -26 -10 -33 -13 -11 -16 -11 -16 1 0 8 5 19 12 26 7 7 8 12 3 12 -6 0 -21 -17 -35 -36 -14 -20 -32 -44 -41 -53 -26 -29 -79 -109 -79 -119 0 -6 7 -12 14 -15 10 -4 13 -1 9 9 -3 10 0 12 10 8 19 -7 32 13 18 30 -8 9 -2 21 24 46 19 19 35 40 35 48 0 7 6 12 12 10 11 -4 98 74 98 88 0 3 -10 2 -22 -2 -20 -6 -21 -5 -6 10 9 9 26 28 39 43 14 18 23 23 26 16 5 -14 33 -18 33 -5 0 4 -5 13 -11 19 -9 9 5 28 55 77 57 57 71 65 94 60 24 -5 25 -4 8 7 -14 9 -16 13 -5 20 8 4 19 3 28 -4 12 -10 13 -8 7 16 -5 20 -3 27 8 27 8 0 30 15 50 33 19 18 52 42 73 53 43 21 114 73 125 90 4 6 21 17 38 24 16 7 30 19 30 26 0 19 -9 17 -51 -9z"/>
<path d="M4580 5490 c0 -5 7 -10 16 -10 8 0 12 5 9 10 -3 6 -10 10 -16 10 -5 0 -9 -4 -9 -10z"/>
<path d="M1777 5429 c-9 -6 -27 -7 -40 -4 -16 5 -18 4 -8 -3 15 -11 7 -32 -12 -32 -16 -1 -67 -46 -67 -60 0 -5 -9 -10 -20 -10 -11 0 -20 -5 -20 -11 0 -6 -7 -9 -15 -5 -15 5 -20 2 -56 -47 -11 -15 -25 -25 -30 -21 -6 3 -21 -2 -35 -11 -20 -13 -23 -19 -14 -30 9 -11 4 -18 -27 -34 -21 -10 -45 -31 -52 -45 -8 -14 -27 -31 -43 -38 -15 -7 -31 -21 -34 -30 -3 -10 -10 -18 -15 -18 -5 0 -9 -7 -9 -15 0 -9 -8 -14 -22 -12 -19 2 -23 -3 -23 -27 0 -21 -7 -34 -27 -45 -29 -17 -88 -97 -88 -120 0 -7 -6 -11 -15 -7 -9 3 -15 0 -15 -9 0 -7 -11 -22 -25 -33 -14 -11 -25 -26 -25 -34 0 -9 -11 -27 -25 -42 -14 -15 -24 -30 -22 -34 8 -15 -31 -38 -64 -38 -33 1 -34 0 -31 -32 3 -24 -2 -38 -14 -47 -15 -10 -16 -16 -6 -28 10 -11 9 -17 -3 -27 -8 -7 -15 -23 -15 -36 0 -12 -5 -26 -10 -29 -6 -3 -10 -15 -10 -26 0 -28 -17 -23 -24 7 -4 15 -9 24 -12 22 -2 -3 1 -18 6 -34 9 -25 6 -42 -20 -103 -16 -41 -30 -80 -30 -88 0 -8 -8 -13 -17 -11 -13 2 -17 -3 -15 -19 2 -12 -6 -41 -17 -64 -12 -24 -21 -49 -21 -56 0 -7 -7 -13 -16 -13 -13 0 -15 -7 -11 -32 5 -34 -25 -189 -43 -220 -6 -10 -10 -31 -10 -48 0 -16 -9 -75 -20 -131 -11 -59 -16 -108 -11 -117 5 -10 10 3 15 39 25 191 138 621 168 640 5 3 9 10 9 15 -2 19 13 53 71 169 34 66 61 131 62 145 0 14 6 24 11 23 6 0 18 10 28 23 10 13 13 24 7 24 -13 0 -13 37 0 45 6 3 10 -4 10 -17 0 -20 3 -19 21 12 12 19 38 58 58 85 20 28 57 77 81 110 24 33 52 67 61 75 9 8 29 33 45 55 27 38 165 176 242 242 18 15 54 47 80 70 26 24 51 43 55 43 4 0 39 25 77 55 38 30 72 55 75 55 3 0 23 11 43 25 28 19 32 25 17 25 -11 0 -28 -5 -38 -11z"/>
<path d="M4855 5290 c3 -5 11 -10 16 -10 6 0 7 5 4 10 -3 6 -11 10 -16 10 -6 0 -7 -4 -4 -10z"/>
<path d="M1314 5129 c-19 -22 -19 -22 3 -10 24 12 39 31 25 31 -5 0 -17 -10 -28 -21z"/>
<path d="M5040 5135 c0 -3 15 -21 33 -39 22 -22 43 -33 61 -33 19 0 24 2 15 8 -7 4 -10 11 -5 16 14 15 252 -259 241 -277 -8 -13 21 -67 56 -108 16 -18 30 -37 30 -42 1 -6 2 -15 3 -22 1 -15 26 -23 26 -9 0 6 5 11 10 11 7 0 7 -6 2 -17 -11 -21 4 -83 19 -83 6 0 9 6 6 13 -3 6 -8 21 -13 32 l-7 20 19 -20 c29 -31 47 -72 40 -91 -5 -13 -4 -15 7 -5 12 9 17 3 31 -33 9 -24 24 -50 32 -56 7 -7 14 -19 14 -27 0 -13 60 -165 94 -238 30 -64 91 -274 102 -350 3 -27 8 -59 10 -70 2 -11 11 -56 19 -100 18 -93 22 -149 30 -421 5 -166 4 -208 -9 -245 -17 -49 -20 -76 -8 -81 4 -1 6 -25 3 -53 -3 -42 -5 -46 -12 -25 -5 17 -7 7 -6 -35 0 -35 -7 -82 -17 -113 -10 -29 -16 -62 -13 -72 3 -11 2 -20 -2 -22 -7 -3 -78 -230 -88 -280 -3 -16 -9 -28 -14 -28 -5 0 -9 -9 -9 -19 0 -11 -4 -23 -10 -26 -5 -3 -10 -16 -10 -28 -1 -20 -2 -21 -14 -4 -20 26 -29 20 -22 -16 10 -50 8 -68 -8 -86 -9 -10 -16 -25 -16 -34 0 -9 -5 -19 -10 -22 -6 -4 -20 -28 -31 -53 -11 -26 -25 -54 -30 -62 -5 -8 -15 -26 -21 -40 -7 -14 -38 -65 -70 -113 -32 -49 -58 -93 -58 -98 0 -5 -11 -9 -25 -9 -20 0 -25 -5 -25 -24 0 -30 -80 -137 -99 -131 -9 4 -12 -1 -9 -12 3 -12 -8 -29 -30 -48 -32 -27 -34 -27 -28 -7 5 13 3 22 -3 22 -13 0 -15 37 -3 42 5 2 20 21 35 43 15 22 27 34 27 27 0 -7 5 -10 10 -7 6 3 10 17 10 31 0 21 4 24 20 19 15 -5 18 -3 14 8 -3 8 11 37 30 65 20 27 36 54 36 60 0 5 7 12 15 16 8 3 14 9 14 13 -1 4 1 16 5 25 10 22 36 24 36 4 0 -18 17 -30 24 -17 4 5 -1 16 -9 24 -20 21 -19 39 5 70 11 14 20 32 20 41 0 9 4 16 8 16 9 0 71 121 103 201 11 29 27 65 35 79 31 57 104 265 104 299 0 15 9 51 20 81 11 30 20 75 20 100 0 25 9 80 20 123 38 151 37 589 -3 814 -6 39 -16 75 -21 80 -5 4 -6 -7 -3 -27 39 -229 48 -567 22 -775 -25 -199 -38 -275 -46 -275 -4 0 -10 -19 -14 -42 -8 -52 -41 -166 -65 -228 -10 -25 -28 -72 -40 -105 -24 -64 -141 -317 -151 -325 -3 -3 -16 -25 -30 -50 -13 -25 -27 -49 -32 -55 -41 -55 -137 -198 -137 -205 0 -5 -6 -13 -12 -17 -7 -4 -42 -42 -77 -83 -99 -116 -295 -303 -406 -386 -55 -41 -108 -82 -118 -90 -11 -9 -40 -27 -65 -41 -26 -14 -58 -34 -72 -43 -42 -29 -201 -112 -275 -145 -35 -15 -37 -19 -20 -25 23 -8 77 12 105 40 11 11 26 17 34 14 8 -3 23 0 33 6 17 11 17 11 -2 5 -24 -8 -20 -3 30 31 22 15 52 27 66 26 19 0 26 4 25 16 -1 14 8 17 46 17 43 0 46 1 32 17 -14 15 -14 18 6 28 12 7 30 10 40 7 11 -3 17 0 14 7 -6 15 91 89 108 83 20 -7 100 54 93 71 -4 12 -2 12 8 3 17 -14 50 18 42 41 -3 8 2 21 11 29 16 12 17 12 12 -2 -4 -9 2 -23 13 -32 26 -23 24 -33 -8 -54 -27 -17 -58 -41 -123 -95 -17 -16 -36 -25 -41 -22 -5 3 -12 -2 -15 -10 -3 -9 -14 -16 -23 -16 -10 0 -23 -10 -30 -22 -7 -13 -35 -38 -63 -56 -38 -26 -56 -32 -78 -27 -25 5 -28 4 -23 -13 3 -14 -1 -22 -15 -26 -11 -4 -27 -15 -37 -26 -14 -15 -7 -14 36 8 30 15 60 33 67 40 8 7 28 20 44 28 27 14 110 71 148 101 8 7 53 40 99 74 47 34 143 121 214 193 125 127 287 317 287 336 0 6 7 10 15 10 8 0 15 6 15 13 0 7 19 40 43 72 84 116 257 450 257 496 0 11 4 18 8 15 4 -2 27 57 51 132 24 75 47 148 51 162 5 14 18 75 30 135 12 61 26 126 32 147 6 20 8 66 4 105 -3 41 -2 60 3 48 25 -58 25 436 0 605 -28 190 -35 229 -41 236 -5 4 -8 17 -8 29 0 52 -83 316 -149 475 -107 255 -313 573 -499 770 -68 73 -71 74 -86 55 -15 -20 -16 -19 -46 13 -28 29 -50 41 -50 27z m173 -3736 c4 -14 -2 -27 -20 -42 -15 -12 -33 -31 -42 -41 -43 -51 -134 -151 -140 -153 -3 -2 -12 9 -19 25 -9 20 -9 28 -1 31 6 2 20 12 31 23 16 16 18 22 7 29 -7 4 -11 9 -9 11 40 29 88 58 97 58 6 0 18 15 27 34 14 30 26 39 57 45 4 0 9 -8 12 -20z"/>
<path d="M5210 4984 c0 -8 5 -12 10 -9 6 4 8 11 5 16 -9 14 -15 11 -15 -7z"/>
<path d="M5190 4921 c0 -5 5 -13 11 -17 14 -8 168 -216 220 -296 28 -44 39 -55 39 -40 0 12 -4 22 -8 22 -4 0 -21 24 -36 53 -16 28 -42 69 -59 91 -17 21 -31 46 -32 55 -2 25 -15 42 -27 35 -7 -5 -9 -1 -5 9 6 15 -15 42 -25 31 -3 -2 -16 8 -29 24 -29 33 -49 47 -49 33z"/>
<path d="M941 4736 c-7 -8 -11 -23 -8 -33 3 -14 6 -12 16 11 13 33 9 43 -8 22z"/>
<path d="M904 4675 c-4 -11 -12 -23 -18 -27 -7 -5 -4 -8 7 -8 19 0 32 22 24 42 -3 9 -7 6 -13 -7z"/>
<path d="M950 4660 c0 -5 5 -10 11 -10 5 0 7 5 4 10 -3 6 -8 10 -11 10 -2 0 -4 -4 -4 -10z"/>
<path d="M858 4608 c-25 -38 -58 -106 -58 -120 0 -16 20 13 55 80 28 54 30 81 3 40z"/>
<path d="M5470 4535 c0 -5 11 -28 24 -50 89 -148 245 -536 261 -650 9 -61 13 -77 24 -110 9 -25 9 -20 5 30 -6 75 -77 319 -120 412 -8 17 -14 34 -14 38 0 3 -31 69 -70 146 -38 76 -70 147 -70 156 0 9 -3 13 -7 10 -3 -4 -12 1 -19 11 -7 9 -13 13 -14 7z"/>
<path d="M850 4501 c0 -5 5 -13 10 -16 6 -3 10 -2 10 4 0 5 -4 13 -10 16 -5 3 -10 2 -10 -4z"/>
<path d="M729 4365 c-28 -58 -52 -111 -53 -118 -3 -14 -14 -45 -27 -72 -22 -51 -81 -247 -108 -363 -66 -279 -66 -283 -65 -602 0 -317 7 -384 70 -647 79 -334 247 -705 432 -953 125 -167 355 -415 472 -510 23 -19 52 -43 64 -54 11 -10 62 -45 111 -77 50 -32 97 -65 105 -73 8 -8 47 -31 85 -52 39 -20 83 -46 98 -57 120 -83 486 -216 747 -272 366 -78 808 -72 1165 17 92 22 351 104 377 118 10 6 22 10 28 10 5 0 57 23 115 50 88 42 104 52 93 64 -7 7 -19 11 -26 8 -11 -4 -11 -6 -1 -13 8 -4 11 -9 9 -11 -11 -8 -78 -28 -94 -28 -9 0 -15 -4 -12 -9 6 -10 -87 -51 -115 -51 -11 0 -19 -4 -19 -9 0 -5 -10 -11 -22 -14 -13 -3 -54 -15 -93 -27 -147 -45 -232 -68 -290 -76 -96 -13 -145 -25 -145 -33 0 -4 -39 -8 -87 -9 -49 -1 -119 -7 -158 -13 -82 -13 -358 -7 -426 9 -26 6 -96 14 -155 18 -60 3 -140 15 -179 25 -38 11 -122 33 -185 50 -63 17 -135 39 -160 49 -179 72 -207 86 -197 93 7 5 2 6 -11 2 -15 -4 -39 3 -76 25 -30 17 -56 34 -58 39 -6 15 -87 61 -107 61 -11 0 -27 7 -36 16 -8 9 -35 26 -60 38 -41 21 -43 24 -27 39 15 16 15 17 0 17 -9 0 -18 -6 -21 -12 -3 -9 -12 -6 -28 10 -19 18 -21 24 -10 31 11 7 11 10 0 17 -7 4 -14 3 -17 -4 -2 -6 -11 -8 -20 -5 -9 2 -23 7 -31 9 -10 3 -11 8 -2 18 9 10 6 17 -13 30 -14 9 -42 33 -64 53 -61 60 -85 78 -90 65 -2 -7 -9 -12 -16 -12 -14 0 -126 116 -126 130 0 18 18 10 25 -9 7 -23 35 -36 35 -16 0 7 -13 28 -29 45 -26 29 -30 30 -39 15 -9 -16 -12 -16 -42 6 -17 13 -38 39 -45 57 -8 17 -18 32 -24 32 -13 0 -114 125 -193 240 -36 52 -106 176 -156 275 -157 314 -182 373 -182 425 0 16 -4 30 -10 32 -16 5 -72 246 -68 294 2 24 1 44 -3 44 -3 0 -4 14 -1 30 3 23 0 30 -13 30 -14 0 -16 6 -11 36 5 21 3 41 -4 49 -7 9 -13 97 -17 252 -5 224 -4 248 22 413 15 96 31 199 35 229 5 29 13 65 19 80 9 25 33 110 45 162 3 14 15 36 26 49 14 16 19 32 16 47 -4 12 -2 25 4 28 5 3 10 16 10 28 0 12 12 45 25 72 14 28 25 55 25 62 0 7 11 29 25 49 14 20 25 43 25 50 0 7 4 14 9 16 13 5 24 48 11 48 -6 0 -33 -47 -61 -105z m744 -3245 c6 -11 17 -20 23 -20 5 0 23 -13 39 -30 45 -47 9 -35 -47 15 -28 25 -54 45 -59 45 -5 0 -9 7 -9 15 0 13 4 14 20 5 11 -6 26 -20 33 -30z"/>
<path d="M5590 4429 c12 -51 21 -70 31 -63 13 8 11 34 -2 32 -6 -2 -13 8 -15 22 -3 13 -9 29 -14 34 -5 5 -5 -5 0 -25z"/>
<path d="M564 3178 c4 -308 6 -351 17 -358 5 -3 9 -22 11 -42 1 -20 6 -34 10 -32 4 3 8 -32 8 -78 0 -82 23 -194 31 -153 3 12 10 -5 18 -40 17 -78 44 -158 80 -242 56 -132 69 -171 64 -197 -5 -26 11 -37 20 -13 3 7 6 5 6 -5 1 -10 6 -18 11 -18 13 0 13 -57 0 -65 -6 -4 -7 -11 -4 -17 4 -7 9 -6 14 2 6 9 12 9 29 -2 17 -10 21 -19 17 -40 -4 -19 -1 -28 8 -28 18 0 46 -33 46 -53 0 -9 4 -17 9 -17 5 0 26 -26 47 -57 22 -32 47 -66 56 -77 10 -11 18 -24 18 -29 0 -6 20 -33 43 -61 24 -28 49 -61 56 -73 6 -13 18 -23 25 -23 7 0 26 -19 43 -42 43 -60 112 -128 129 -128 8 0 14 -5 14 -12 0 -17 40 -57 54 -53 6 3 20 -10 31 -28 11 -17 25 -31 30 -31 17 -1 43 -28 39 -41 -6 -14 59 -48 82 -43 9 2 -4 18 -37 43 -146 112 -337 303 -449 448 -89 115 -151 203 -168 237 -10 19 -29 53 -44 76 -104 161 -264 573 -284 730 -3 30 -9 54 -13 54 -7 0 -20 89 -42 275 -4 39 -8 168 -8 288 -1 140 -5 217 -11 217 -7 0 -9 -92 -6 -272z m63 -555 c-3 -10 -5 -4 -5 12 0 17 2 24 5 18 2 -7 2 -21 0 -30z m10 -65 c-3 -7 -5 -2 -5 12 0 14 2 19 5 13 2 -7 2 -19 0 -25z"/>
<path d="M2703 2572 c-58 -21 -147 -85 -181 -131 -33 -45 -55 -109 -59 -176 -4 -67 12 -119 111 -355 32 -78 56 -150 56 -170 -1 -121 -158 -254 -258 -219 -63 22 -65 144 -5 262 45 90 5 105 -69 26 -81 -87 -112 -215 -68 -287 40 -66 163 -97 265 -67 110 32 149 58 201 136 44 65 49 78 52 139 5 81 -7 122 -60 210 -21 36 -41 76 -44 90 -3 14 -15 54 -27 90 -30 88 -29 183 2 233 48 78 180 167 247 167 34 0 54 -20 54 -56 0 -36 -43 -134 -65 -147 -19 -10 -66 -97 -59 -108 23 -38 214 172 214 236 0 104 -171 175 -307 127z m-466 -934 c-3 -8 -6 -5 -6 6 -1 11 2 17 5 13 3 -3 4 -12 1 -19z"/>
<path d="M592 2530 c0 -14 2 -19 5 -12 2 6 2 18 0 25 -3 6 -5 1 -5 -13z"/>
<path d="M3812 2433 c-29 -60 -80 -180 -115 -267 -61 -152 -65 -160 -98 -171 -40 -14 -49 -39 -20 -55 24 -12 29 -45 7 -37 -13 5 -182 -118 -248 -181 -48 -45 -44 -14 11 94 53 101 54 104 36 124 -12 13 -31 20 -57 20 -32 0 -40 -4 -48 -26 -6 -14 -37 -56 -70 -92 -33 -37 -60 -70 -60 -73 0 -8 -130 -113 -158 -128 -30 -16 -46 9 -37 56 9 50 72 220 96 259 26 44 25 72 -5 80 -14 3 -32 4 -42 2 -28 -5 -77 -88 -106 -178 -61 -195 -61 -193 -42 -239 11 -27 24 -43 40 -47 59 -15 173 53 271 162 37 41 68 72 70 70 3 -2 -11 -55 -31 -118 l-35 -114 -90 -82 c-156 -143 -281 -313 -281 -383 0 -67 63 -119 144 -119 65 0 95 31 160 163 49 99 156 397 156 432 0 17 308 280 317 272 1 -2 -13 -52 -32 -112 -56 -174 -57 -210 -10 -241 38 -25 62 -11 74 44 5 26 30 114 55 196 26 82 46 155 46 162 0 23 41 37 144 50 55 8 101 12 102 11 1 -1 -29 -81 -67 -177 -120 -305 -131 -362 -79 -390 50 -27 55 -18 136 202 83 228 135 357 153 379 10 13 39 25 76 33 79 16 85 36 11 36 -31 0 -56 4 -56 9 0 5 38 87 85 182 47 96 85 185 85 197 0 28 -53 82 -80 82 -11 0 -22 -6 -27 -12 -11 -18 -65 -140 -129 -293 -30 -71 -59 -140 -64 -152 -5 -13 -18 -23 -27 -24 -35 -2 -99 -8 -155 -14 -61 -6 -64 -5 -48 23 6 9 21 49 34 87 25 72 102 250 138 319 l21 39 -27 24 c-52 45 -67 35 -124 -84z m-52 -330 c-11 -17 -11 -17 -6 0 3 10 6 24 7 30 0 9 2 9 5 0 3 -7 0 -20 -6 -30z m-630 -643 c0 -6 -24 -71 -54 -146 -84 -211 -140 -288 -181 -254 -19 16 -19 77 0 123 16 40 91 141 168 229 50 57 67 69 67 48z"/>
<path d="M610 2454 c0 -14 4 -23 9 -20 5 3 7 15 4 26 -7 28 -13 25 -13 -6z"/>
<path d="M700 2211 c0 -12 5 -21 10 -21 6 0 10 6 10 14 0 8 -4 18 -10 21 -5 3 -10 -3 -10 -14z"/>
<path d="M746 2123 c3 -10 14 -29 25 -43 19 -24 19 -24 -1 18 -21 44 -31 54 -24 25z"/>
<path d="M5650 2074 c0 -8 5 -12 10 -9 6 4 8 11 5 16 -9 14 -15 11 -15 -7z"/>
<path d="M5553 1885 c-3 -9 -3 -19 1 -22 3 -4 6 1 6 10 0 8 6 18 13 20 9 4 9 6 -1 6 -7 1 -15 -6 -19 -14z"/>
<path d="M1664 1052 c4 -7 2 -12 -3 -12 -6 0 -11 -4 -11 -10 0 -5 14 -10 30 -10 17 0 30 -4 30 -10 0 -5 7 -10 15 -10 8 0 15 -5 15 -11 0 -5 3 -8 8 -6 4 3 27 -8 52 -24 51 -32 43 -40 -9 -8 -18 11 -38 18 -45 16 -6 -2 3 -10 19 -18 17 -7 37 -19 46 -26 19 -16 49 -7 49 13 0 8 -4 14 -9 14 -5 0 -44 23 -87 51 -85 56 -111 69 -100 51z"/>
<path d="M2850 880 c-34 -50 -60 -99 -58 -108 2 -13 16 -18 55 -20 45 -3 52 -6 55 -25 4 -30 51 -31 56 -2 3 11 10 24 18 28 18 10 18 34 -1 44 -10 6 -15 31 -17 88 -3 74 -5 80 -25 83 -18 3 -33 -14 -83 -88z m50 -40 c0 -28 -5 -43 -16 -47 -31 -11 -37 13 -12 51 12 20 24 36 26 36 1 0 2 -18 2 -40z"/>
<path d="M3042 960 c-15 -6 -22 -17 -20 -27 3 -15 12 -17 51 -15 36 3 48 0 53 -12 8 -22 -12 -44 -44 -48 -35 -4 -44 -38 -10 -38 33 0 61 -22 56 -46 -3 -16 -12 -19 -58 -19 -48 0 -55 -3 -55 -20 0 -43 116 -42 160 1 22 23 19 70 -7 88 -20 15 -21 16 -5 34 21 23 22 75 2 92 -20 16 -94 22 -123 10z"/>
<path d="M3271 934 c-34 -29 -39 -39 -30 -50 10 -12 15 -12 35 1 13 9 24 12 25 8 0 -5 1 -48 2 -98 l2 -90 28 -3 27 -3 0 135 c0 136 0 136 -23 136 -13 0 -42 -16 -66 -36z"/>
<path d="M3482 960 c-44 -19 -67 -125 -41 -198 13 -37 66 -66 104 -56 47 12 65 48 65 130 0 61 -4 77 -22 98 -26 29 -72 40 -106 26z m68 -59 c5 -11 10 -42 10 -68 0 -103 -62 -114 -68 -13 -2 30 -1 64 3 77 7 28 40 31 55 4z"/>
<path d="M4650 940 c0 -5 7 -7 15 -4 8 4 15 8 15 10 0 2 -7 4 -15 4 -8 0 -15 -4 -15 -10z"/>
<path d="M1855 911 c-6 -11 29 -26 73 -30 7 0 10 -5 7 -11 -4 -6 1 -7 11 -3 13 5 15 3 9 -7 -5 -9 -4 -11 4 -6 6 4 26 -3 43 -16 18 -12 39 -23 46 -25 8 -1 24 -10 36 -21 28 -26 80 -52 104 -52 10 0 22 -4 27 -9 18 -16 159 -62 204 -66 48 -4 69 -15 28 -15 -15 0 -27 -4 -27 -9 0 -11 76 -23 155 -25 33 -1 67 -4 75 -7 55 -21 82 -26 101 -22 12 4 25 0 29 -8 5 -7 21 -14 37 -15 15 -1 30 -3 33 -4 3 -1 149 -2 325 -1 250 0 342 4 420 16 55 10 120 20 145 24 25 4 55 13 67 19 12 7 31 12 42 12 12 0 29 4 39 9 40 20 100 34 147 34 31 -1 43 2 31 6 -25 10 -14 16 56 32 31 7 54 17 52 21 -3 4 7 10 21 14 14 3 25 10 25 15 0 12 -2 12 -52 -10 -64 -27 -215 -77 -278 -91 -30 -7 -77 -18 -105 -26 -27 -7 -106 -23 -175 -36 -111 -20 -157 -22 -405 -22 -282 0 -370 8 -560 54 -22 5 -53 12 -70 14 -57 9 -230 65 -330 106 -55 23 -118 49 -140 58 -22 9 -78 38 -124 64 -83 47 -114 57 -126 39z m50 -19 c-3 -3 -11 0 -18 7 -9 10 -8 11 6 5 10 -3 15 -9 12 -12z m635 -262 c18 -12 2 -12 -25 0 -13 6 -15 9 -5 9 8 0 22 -4 30 -9z"/>
<path d="M4483 844 c-8 -21 1 -26 22 -11 16 13 16 14 1 20 -10 4 -19 1 -23 -9z"/>
<path d="M1990 786 c0 -2 7 -7 16 -10 8 -3 12 -2 9 4 -6 10 -25 14 -25 6z"/>
<path d="M4118 693 c7 -3 16 -2 19 1 4 3 -2 6 -13 5 -11 0 -14 -3 -6 -6z"/>
<path d="M2698 543 c6 -2 18 -2 25 0 6 3 1 5 -13 5 -14 0 -19 -2 -12 -5z"/>
</g>
</svg>